<!--?xml version="1.0" encoding="UTF-8" standalone="no"?-->
<svg xmlns="http://www.w3.org/2000/svg" version="1.2" baseProfile="tiny" viewBox="0.00 0.00 512.00 512.00" width="512" height="512">
<path stroke="rgb(37 99 235)" stroke-width="5" fill="rgb(59 130 246)" d="
  M 253.01 359.08
  Q 220.10 345.89 195.34 320.21
  C 169.17 293.07 151.80 258.51 148.16 221.23
  Q 147.42 213.59 147.43 202.20
  Q 147.50 153.00 147.47 110.50
  Q 147.46 102.21 150.14 92.35
  C 157.28 66.09 176.16 43.47 201.11 31.24
  Q 214.72 24.57 228.44 23.94
  Q 237.16 23.54 252.86 23.80
  Q 253.49 23.81 253.49 24.44
  L 253.48 98.71
  A 0.25 0.24 -0.0 0 1 253.23 98.95
  Q 241.50 99.11 229.68 98.93
  Q 224.20 98.84 220.40 100.24
  C 212.55 103.11 207.37 109.67 207.43 118.37
  Q 207.68 154.82 207.39 195.25
  Q 207.29 208.22 208.05 215.62
  Q 210.99 244.39 227.54 267.86
  Q 251.80 302.24 293.65 311.84
  Q 300.84 313.48 309.66 313.96
  C 333.95 315.27 358.61 308.42 378.14 295.41
  C 409.68 274.37 427.28 240.37 427.13 202.54
  Q 426.96 160.28 427.17 118.12
  C 427.24 102.92 416.09 98.11 402.90 98.47
  Q 394.90 98.68 387.37 99.00
  Q 384.18 99.14 381.10 98.98
  A 0.46 0.46 0.0 0 1 380.67 98.52
  L 380.72 23.79
  A 0.29 0.28 0.0 0 1 381.01 23.51
  C 400.01 23.65 408.95 22.98 423.00 26.57
  Q 433.14 29.16 446.14 38.13
  Q 471.87 55.91 482.68 84.30
  C 486.60 94.60 488.01 105.39 488.00 117.14
  Q 487.94 154.95 487.92 196.10
  Q 487.90 228.82 477.64 258.24
  C 461.70 303.94 426.15 340.66 381.26 358.29
  Q 370.18 362.64 356.91 366.01
  Q 343.88 369.31 325.87 370.39
  Q 325.19 370.43 324.71 370.91
  L 240.11 455.92
  A 0.45 0.44 -44.6 0 1 239.48 455.92
  L 162.73 379.02
  Q 162.23 378.52 161.72 379.02
  L 125.27 414.79
  Q 124.58 415.46 124.86 416.39
  Q 132.84 442.30 117.86 463.32
  Q 112.42 470.96 104.30 476.36
  Q 84.12 489.77 60.74 482.93
  Q 42.36 477.55 32.45 460.79
  Q 19.76 439.32 26.65 415.78
  C 32.61 395.44 51.93 381.88 72.60 380.82
  Q 86.08 380.12 98.12 387.02
  Q 98.71 387.35 99.10 386.79
  C 99.85 385.69 100.63 384.53 101.58 383.59
  Q 131.70 353.98 161.71 324.14
  A 2.13 2.12 -44.0 0 1 164.75 324.19
  Q 174.34 334.40 184.10 344.72
  C 197.57 358.94 211.78 372.54 225.78 386.34
  A 0.58 0.57 44.6 0 0 226.59 386.34
  L 253.12 359.59
  A 0.31 0.31 0.0 0 0 253.01 359.08
  Z" class="svg-elem-1"></path>
</svg>
